<svg id="Layer_1" data-name="Layer 1" xmlns="http://www.w3.org/2000/svg" viewBox="0 0 340.16 340.16">
  <path d="M170.08,331.27a98,98,0,1,1,98-98A98.1,98.1,0,0,1,170.08,331.27Zm0-179a81,81,0,1,0,81,81A81.07,81.07,0,0,0,170.08,152.29Z" fill="#00aeef"/>
  <path d="M170.08,331.27c-88.25,0-160-71.8-160-160s71.8-160,160.05-160,160,71.8,160,160.05S258.33,331.27,170.08,331.27Zm0-303.09c-78.87,0-143,64.17-143,143s64.17,143,143,143,143-64.17,143-143S249,28.18,170.08,28.18Z" fill="#e11156"/>
  <path d="M170.08,331.27C88.67,331.27,22.44,265,22.44,183.63S88.67,36,170.08,36s147.63,66.22,147.63,147.63S251.48,331.27,170.08,331.27Zm0-278.27a130.63,130.63,0,0,0,0,261.26c72,0,130.62-58.6,130.62-130.63S242.11,53,170.08,53Z" fill="#ec008c"/>
  <path d="M170.08,331.27C95.52,331.27,34.85,270.6,34.85,196S95.52,60.82,170.08,60.82,305.3,121.48,305.3,196,244.64,331.27,170.08,331.27Zm0-253.44A118.22,118.22,0,1,0,288.29,196,118.35,118.35,0,0,0,170.08,77.83Z" fill="#92278f"/>
  <path d="M170.08,331.27A122.82,122.82,0,1,1,292.89,208.45,123,123,0,0,1,170.08,331.27Zm0-228.62a105.81,105.81,0,1,0,105.8,105.8A105.93,105.93,0,0,0,170.08,102.65Z" fill="#2e3192"/>
  <path d="M170.08,331.27a110.41,110.41,0,1,1,110.4-110.41A110.53,110.53,0,0,1,170.08,331.27Zm0-203.8a93.4,93.4,0,1,0,93.39,93.39A93.5,93.5,0,0,0,170.08,127.47Z" fill="#0072bc"/>
  <path d="M170.08,331.27a85.58,85.58,0,1,1,85.58-85.58A85.68,85.68,0,0,1,170.08,331.27Zm0-154.15a68.57,68.57,0,1,0,68.57,68.57A68.65,68.65,0,0,0,170.08,177.12Z" fill="#00a99d"/>
  <path d="M170.08,331.27a73.17,73.17,0,1,1,73.16-73.17A73.25,73.25,0,0,1,170.08,331.27Zm0-129.33a56.16,56.16,0,1,0,56.16,56.16A56.22,56.22,0,0,0,170.08,201.94Z" fill="#00a651"/>
  <path d="M170.08,331.27a60.76,60.76,0,1,1,60.75-60.76A60.83,60.83,0,0,1,170.08,331.27Zm0-104.51a43.75,43.75,0,1,0,43.74,43.75A43.8,43.8,0,0,0,170.08,226.76Z" fill="#87c540"/>
  <path d="M170.08,331.27a48.35,48.35,0,1,1,48.34-48.35A48.41,48.41,0,0,1,170.08,331.27Zm0-79.68a31.34,31.34,0,1,0,31.33,31.33A31.37,31.37,0,0,0,170.08,251.59Z" fill="#fff200"/>
  <path d="M170.08,331.27A35.94,35.94,0,1,1,206,295.33,36,36,0,0,1,170.08,331.27Zm0-54.86A18.93,18.93,0,1,0,189,295.33,18.95,18.95,0,0,0,170.08,276.41Z" fill="#f7941d"/>
  <path d="M170.08,331.27a23.53,23.53,0,1,1,23.52-23.53A23.55,23.55,0,0,1,170.08,331.27Zm0-30a6.52,6.52,0,1,0,6.51,6.51A6.52,6.52,0,0,0,170.08,301.23Z" fill="#ee342e"/>
</svg>
